<?xml version="1.0" standalone="no"?>
<!DOCTYPE svg PUBLIC "-//W3C//DTD SVG 20010904//EN"
 "http://www.w3.org/TR/2001/REC-SVG-20010904/DTD/svg10.dtd">
<svg version="1.0" xmlns="http://www.w3.org/2000/svg"
 width="213.000000pt" height="184.000000pt" viewBox="0 0 213.000000 184.000000"
 preserveAspectRatio="xMidYMid meet">
<metadata>
Created by potrace 1.15, written by Peter Selinger 2001-2017
</metadata>
<g transform="translate(0.000000,184.000000) scale(0.100000,-0.100000)"
fill="#000000" stroke="none">
<path d="M1085 1790 c-60 -28 -121 -62 -136 -76 -15 -14 -30 -26 -33 -25 -3 1
-6 -2 -5 -6 1 -10 -62 -33 -74 -26 -6 4 -7 1 -2 -7 5 -8 3 -11 -6 -8 -8 3 -20
-2 -28 -9 -7 -8 -20 -12 -27 -9 -8 3 -14 1 -14 -3 0 -12 -150 -66 -299 -107
-68 -19 -125 -35 -126 -36 -32 -50 -50 -96 -80 -203 -65 -232 -119 -368 -205
-515 l-42 -72 5 -81 c6 -72 9 -84 34 -106 l27 -26 -22 26 c-25 28 -32 70 -9
50 8 -6 17 -8 21 -4 3 4 30 -16 59 -44 62 -60 230 -205 382 -330 l111 -91 99
-7 c92 -7 103 -10 144 -41 l44 -34 301 0 c166 0 317 4 336 9 21 5 81 44 150
100 178 143 323 231 379 231 13 0 21 9 25 27 12 56 24 312 19 438 -4 150 -39
445 -53 459 -5 5 -32 19 -60 31 -40 17 -100 69 -270 234 -188 182 -229 216
-285 242 -56 25 -208 69 -240 69 -5 0 -59 -23 -120 -50z"/>
</g>
</svg>
